# xmcd
#
# Track frame offsets: 
#        150
#        28610
#        44666
#        68100
#        86161
#        104811
#        127673
#        148138
#
# Disc length: 2305 seconds
#
# Revision: 0
# Processed by: cddbd v1.5.2PL0 Copyright (c) Steve Scherf et al.
# Submitted via: ExactAudioCopy v0.99pb4
#
DISCID=7408ff08
DTITLE=Milt Matthews Inc. - For The People
DYEAR=1971
DGENRE=Soul
TTITLE0=The Thrill Is Gone
TTITLE1=Can't See Myself Doing You Wrong
TTITLE2=Hard Day's Night
TTITLE3=Oh Lord (You Gotta Help Me)
TTITLE4=Runaway People
TTITLE5=That's The Way I Feel (Like A Burning Fire)
TTITLE6=Disaster Area
TTITLE7=Presence Of The Lord
EXTD=
EXTT0=
EXTT1=
EXTT2=
EXTT3=
EXTT4=
EXTT5=
EXTT6=
EXTT7=
PLAYORDER=
